<svg width="121" height="54" viewBox="0 0 121 54" fill="none" xmlns="http://www.w3.org/2000/svg">
<path d="M23.86 22.86C23.86 28.14 22.6 31.812 20.08 33.876C19.048 34.692 17.932 35.256 16.732 35.568C15.532 35.856 13.96 36 12.016 36H2.692L2.368 34.02C4.192 33.348 5.2 33 5.392 32.976C5.392 32.904 5.284 26.556 5.068 13.932C4.012 13.668 3.016 13.356 2.08 12.996C2.224 11.748 2.32 11.016 2.368 10.8H11.908C14.26 10.8 16.132 11.04 17.524 11.52C18.94 12 20.188 12.852 21.268 14.076C22.996 16.092 23.86 19.02 23.86 22.86ZM12.34 32.508C15.076 32.508 16.888 31.848 17.776 30.528C18.688 29.208 19.144 26.928 19.144 23.688C19.144 20.448 18.64 18.096 17.632 16.632C16.624 15.144 14.944 14.4 12.592 14.4H9.964C9.868 22.488 9.808 28.524 9.784 32.508H12.34ZM35.6317 20.16C34.7677 20.16 33.7837 20.376 32.6797 20.808C32.3677 21.288 32.0677 22.14 31.7797 23.364C31.5157 24.564 31.3837 25.776 31.3837 27C31.3837 29.256 31.7197 30.864 32.3917 31.824C33.0637 32.76 34.1437 33.228 35.6317 33.228C37.1437 33.228 38.2357 32.76 38.9077 31.824C39.5797 30.864 39.9157 29.232 39.9157 26.928C39.9157 24.6 39.5677 22.896 38.8717 21.816C38.1997 20.712 37.1197 20.16 35.6317 20.16ZM35.6317 17.28C38.4397 17.28 40.6957 18.144 42.3997 19.872C44.1277 21.576 44.9917 23.964 44.9917 27.036C44.9917 30.084 44.1397 32.412 42.4357 34.02C40.7317 35.628 38.4637 36.432 35.6317 36.432C32.7997 36.432 30.5317 35.628 28.8277 34.02C27.1477 32.412 26.3077 30.084 26.3077 27.036C26.3077 23.964 27.1597 21.576 28.8637 19.872C30.5677 18.144 32.8237 17.28 35.6317 17.28ZM55.4348 20.268L54.8588 20.232C53.5148 20.232 52.4348 20.7 51.6188 21.636C50.8268 22.548 50.4308 24.096 50.4308 26.28C50.4308 28.44 50.7308 30.084 51.3308 31.212C51.9548 32.34 53.1428 32.904 54.8948 32.904C55.7108 32.904 57.4388 32.352 60.0788 31.248C60.6788 32.088 61.0028 32.964 61.0508 33.876C59.7308 34.692 58.4348 35.328 57.1628 35.784C55.9148 36.24 55.0268 36.468 54.4988 36.468C51.5468 36.468 49.3388 35.664 47.8748 34.056C46.4108 32.424 45.6788 30.144 45.6788 27.216C45.6788 20.592 48.6668 17.28 54.6428 17.28C55.6748 17.28 56.7308 17.412 57.8108 17.676C58.9148 17.916 59.7788 18.228 60.4028 18.612C60.3308 21.012 60.0668 22.752 59.6108 23.832C58.8188 24.024 57.7028 24.12 56.2628 24.12L55.4348 20.268ZM94.3427 20.16C93.4787 20.16 92.4947 20.376 91.3907 20.808C91.0787 21.288 90.7787 22.14 90.4907 23.364C90.2267 24.564 90.0947 25.776 90.0947 27C90.0947 29.256 90.4307 30.864 91.1027 31.824C91.7747 32.76 92.8547 33.228 94.3427 33.228C95.8547 33.228 96.9467 32.76 97.6187 31.824C98.2907 30.864 98.6267 29.232 98.6267 26.928C98.6267 24.6 98.2787 22.896 97.5827 21.816C96.9107 20.712 95.8307 20.16 94.3427 20.16ZM94.3427 17.28C97.1507 17.28 99.4067 18.144 101.111 19.872C102.839 21.576 103.703 23.964 103.703 27.036C103.703 30.084 102.851 32.412 101.147 34.02C99.4427 35.628 97.1747 36.432 94.3427 36.432C91.5107 36.432 89.2427 35.628 87.5387 34.02C85.8587 32.412 85.0187 30.084 85.0187 27.036C85.0187 23.964 85.8707 21.576 87.5747 19.872C89.2787 18.144 91.5347 17.28 94.3427 17.28ZM114.83 21.168C114.782 21.048 114.542 20.988 114.11 20.988C113.678 20.988 112.934 21.312 111.878 21.96C111.782 26.664 111.722 30.192 111.698 32.544L114.506 32.904C114.506 33.936 114.23 34.968 113.678 36H104.714L104.39 34.02C105.878 33.468 106.958 33.108 107.63 32.94L107.234 21.276C105.986 21.18 104.942 21 104.102 20.736L104.354 18.144C105.002 17.856 107.342 17.664 111.374 17.568C111.59 17.784 111.698 18.204 111.698 18.828C113.81 17.796 115.142 17.28 115.694 17.28C116.27 17.28 116.966 17.424 117.782 17.712C118.622 17.976 119.258 18.264 119.69 18.576V19.188C119.69 21.156 119.45 22.98 118.97 24.66C118.562 24.828 118.022 24.912 117.35 24.912C116.678 24.912 116.054 24.876 115.478 24.804C115.406 24.492 115.19 23.28 114.83 21.168Z" fill="#000304"/>
<path d="M62.6593 17.352C62.2753 15.696 62.0833 14.388 62.0833 13.428C62.0833 12.468 62.1193 11.592 62.1913 10.8H83.1073C83.2033 11.952 83.2513 12.732 83.2513 13.14C83.2513 14.172 83.0593 15.576 82.6753 17.352C81.9793 17.544 80.8393 17.64 79.2553 17.64L78.4273 14.004H75.3673C75.3433 14.916 75.2353 21.096 75.0433 32.544L77.6353 32.868C77.6353 33.972 77.3593 35.016 76.8073 36H68.0593L67.7353 34.02C69.3913 33.396 70.4353 33.048 70.8673 32.976C70.8673 32.88 70.7233 26.568 70.4353 14.04H66.8713L66.0793 17.568C64.6633 17.568 63.5233 17.496 62.6593 17.352Z" fill="#F9451E"/>
<path d="M58.9744 53C38.6325 53 10.4929 48.896 1 46.5764C44.7351 36.4057 96.2678 42.4724 120 46.5764C109.49 48.896 79.3163 53 58.9744 53Z" fill="#9A2020" stroke="#DC3F3F"/>
</svg>
